<?xml version="1.0" standalone="no"?>
<!DOCTYPE svg PUBLIC "-//W3C//DTD SVG 20010904//EN"
 "http://www.w3.org/TR/2001/REC-SVG-20010904/DTD/svg10.dtd">
<svg version="1.0" xmlns="http://www.w3.org/2000/svg"
 width="50.000000pt" height="50.000000pt" viewBox="0 0 225.000000 225.000000"
 preserveAspectRatio="xMidYMid meet">
<g transform="translate(0.000000,225.000000) scale(0.100000,-0.100000)"
fill="#4f705d" stroke="none">
<path d="M845 2100 c-234 -52 -430 -168 -582 -345 -169 -197 -253 -424 -253
-685 0 -145 20 -257 69 -381 121 -311 371 -537 701 -635 90 -27 105 -29 280
-28 171 0 192 2 275 27 398 119 685 437 756 837 20 110 15 286 -10 403 -84
394 -401 716 -792 803 -117 26 -334 28 -444 4z m169 -52 c21 -29 20 -87 0
-109 -15 -16 -14 -20 10 -52 33 -43 33 -47 -4 -47 -16 0 -30 3 -30 8 0 4 -14
23 -30 42 -36 42 -38 58 -7 62 17 2 22 10 22 33 0 27 -4 30 -34 33 l-34 3 7
-48 c22 -155 24 -143 -26 -147 -13 -1 -42 206 -33 232 3 8 27 12 74 12 61 0
72 -3 85 -22z m321 -8 c39 -19 87 -81 73 -95 -9 -9 -61 15 -75 35 -21 29 -87
27 -107 -2 -38 -53 -6 -122 54 -120 60 2 64 25 6 36 -31 6 -34 9 -27 29 6 14
16 21 27 19 20 -3 117 -33 122 -37 10 -9 -33 -67 -60 -81 -91 -47 -191 9 -191
107 0 55 21 89 68 110 51 23 60 23 110 -1z m-644 -93 c46 -31 61 -63 55 -117
-8 -87 -106 -137 -186 -95 -53 28 -76 108 -47 165 17 34 74 70 112 70 18 0 47
-10 66 -23z m999 -92 c5 -6 3 -17 -4 -27 -12 -16 -15 -15 -47 7 -34 22 -36 23
-47 4 -10 -16 -8 -22 18 -41 55 -40 25 -77 -30 -38 -30 22 -32 22 -45 4 -13
-17 -11 -22 15 -44 32 -27 36 -40 19 -57 -8 -8 -26 0 -65 30 -61 48 -64 34 33
165 l54 72 45 -32 c25 -18 49 -37 54 -43z m-495 -60 c148 -31 266 -93 366
-190 181 -176 261 -419 215 -657 -42 -219 -170 -399 -362 -505 -110 -62 -189
-84 -321 -90 -165 -8 -291 27 -433 119 -204 132 -320 354 -320 612 0 127 14
193 64 301 138 299 479 476 791 410z m-809 -90 c10 -15 26 -25 40 -25 33 0 64
-34 64 -68 0 -27 -44 -101 -70 -117 -9 -6 -190 129 -190 142 0 3 16 26 36 49
29 36 41 44 69 44 26 0 39 -6 51 -25z m1469 -20 c25 -24 32 -65 19 -99 -14
-36 -50 -5 -45 38 3 20 -17 38 -31 30 -5 -3 -6 -34 -2 -68 6 -59 5 -64 -17
-80 -35 -24 -76 -20 -104 10 -14 15 -26 34 -26 43 -3 33 3 57 17 71 14 13 17
13 29 -4 8 -11 12 -30 9 -46 -6 -29 12 -45 36 -30 11 7 11 16 2 48 -7 22 -12
45 -12 51 0 22 49 61 75 61 14 0 37 -11 50 -25z m-1440 -1060 c32 -54 30 -76
-12 -95 -18 -8 -33 -23 -33 -32 0 -23 -36 -41 -65 -34 -13 3 -38 24 -55 46
-37 47 -41 38 57 105 29 20 55 40 58 45 12 19 24 10 50 -35z m1355 21 c0 -18
-15 -36 -30 -36 -23 0 -36 -18 -22 -32 7 -7 21 -4 45 11 43 26 62 26 87 1 27
-27 25 -66 -5 -95 -25 -26 -50 -31 -74 -16 -12 8 -12 12 -2 25 8 9 22 16 32
16 23 0 30 12 19 30 -7 12 -15 11 -48 -7 -46 -27 -76 -21 -92 16 -12 30 -1 75
22 84 16 7 68 9 68 3z m-103 -102 c3 -9 -3 -24 -16 -35 -18 -17 -20 -23 -9
-36 11 -13 15 -12 36 12 22 26 25 27 40 12 15 -15 14 -19 -8 -42 -20 -22 -22
-28 -10 -35 10 -6 21 -3 36 11 12 12 28 17 37 13 23 -9 22 -13 -21 -61 l-37
-42 -73 71 -73 71 28 31 c46 51 60 57 70 30z m-1179 -7 c9 -10 0 -25 -38 -62
-51 -50 -62 -81 -34 -92 10 -4 34 12 70 48 48 48 56 52 69 38 14 -14 10 -21
-39 -72 -47 -50 -58 -57 -93 -57 -33 0 -42 5 -57 31 -24 40 -16 63 40 127 49
54 64 61 82 39z m1111 -101 c17 -18 22 -33 19 -55 -4 -27 -1 -32 29 -42 36
-12 40 -20 19 -38 -11 -9 -24 -7 -60 11 -46 22 -54 32 -36 43 15 9 12 45 -4
51 -8 3 -24 1 -35 -6 -21 -10 -20 -12 17 -63 55 -74 56 -78 41 -88 -8 -5 -17
-9 -20 -9 -7 0 -74 86 -103 132 -17 26 -17 26 26 57 53 37 78 38 107 7z m-924
-57 c-4 -5 0 -7 7 -4 24 9 35 -10 49 -85 l15 -75 19 54 c20 54 38 72 56 54 7
-7 -2 -41 -27 -102 -21 -50 -40 -91 -43 -91 -21 1 -34 25 -44 83 -6 37 -14 67
-18 67 -4 0 -15 -22 -25 -50 -18 -51 -21 -54 -48 -44 -11 4 -13 11 -6 27 47
118 59 149 53 144 -3 -4 -21 2 -38 13 -30 19 -33 19 -39 3 -6 -15 -2 -21 32
-41 14 -9 6 -42 -11 -42 -6 0 -18 7 -28 16 -19 17 -39 12 -39 -10 0 -7 11 -19
25 -26 29 -15 31 -23 11 -39 -12 -10 -23 -7 -55 15 -23 15 -41 32 -41 38 0 6
23 46 50 88 l50 78 50 -31 c28 -17 48 -35 45 -40z m718 -126 c32 -40 55 -77
52 -83 -9 -14 -43 -12 -52 3 -12 21 -73 -7 -73 -33 0 -11 -4 -20 -9 -20 -5 0
-17 -3 -26 -6 -15 -6 -16 3 -10 92 4 55 8 105 11 112 9 30 50 5 107 -65z
m-421 35 c22 -11 48 -59 48 -88 0 -32 -25 -74 -52 -87 -44 -21 -59 -23 -92 -9
-86 36 -89 147 -6 188 33 17 64 16 102 -4z m176 -18 c7 -12 10 -25 7 -30 -9
-15 -42 -12 -49 5 -3 8 -12 12 -21 9 -25 -10 -17 -23 23 -42 46 -21 52 -29 52
-68 0 -41 -16 -54 -67 -54 -43 0 -63 17 -63 54 0 21 30 20 45 -1 7 -10 19 -14
29 -10 25 10 15 29 -20 40 -42 14 -54 26 -54 54 0 46 17 63 63 63 32 0 45 -5
55 -20z"/>
<path d="M575 1895 c-14 -13 -25 -36 -25 -50 0 -35 42 -75 79 -75 33 0 71 39
71 72 0 26 -53 78 -80 78 -11 0 -32 -11 -45 -25z"/>
<path d="M995 1774 c-162 -32 -195 -43 -278 -91 -162 -94 -258 -216 -322 -407
-21 -64 -25 -93 -25 -198 0 -114 3 -130 34 -220 42 -119 89 -192 183 -284 270
-264 705 -255 972 19 63 65 81 91 125 177 104 205 94 467 -26 668 -46 77 -170
199 -248 245 -118 68 -313 111 -415 91z m125 -64 c36 0 44 -11 26 -36 -12 -16
-12 -23 0 -46 14 -28 14 -28 -19 -28 -26 0 -37 -6 -47 -25 -7 -14 -16 -25 -20
-25 -4 0 -13 11 -20 25 -10 19 -21 25 -48 25 l-34 0 17 26 c15 23 15 28 1 49
-18 27 -12 35 24 35 18 0 31 8 40 26 l14 25 19 -25 c13 -18 28 -26 47 -26z
m297 -66 c72 -38 161 -127 201 -202 29 -54 41 -102 26 -102 -9 0 -113 71 -120
81 -3 5 -18 9 -33 9 -15 0 -31 4 -36 9 -28 27 -80 4 -98 -43 -4 -10 -16 -20
-27 -23 -25 -7 -26 -22 -3 -39 15 -10 16 -17 7 -41 -8 -21 -7 -45 1 -88 l12
-60 -36 -47 c-20 -25 -46 -49 -57 -52 -12 -3 -24 -17 -28 -30 -3 -13 -17 -34
-31 -47 -24 -23 -32 -63 -17 -85 4 -6 40 -31 80 -57 80 -52 92 -69 68 -96 -23
-25 -19 -53 10 -74 24 -18 28 -18 74 -3 27 9 51 16 55 16 3 0 -7 -19 -21 -42
-25 -39 -26 -43 -10 -53 52 -30 53 -33 22 -44 -16 -7 -57 -14 -92 -17 -59 -5
-64 -4 -64 14 0 15 -9 21 -37 26 -64 10 -95 7 -198 -20 -112 -29 -202 -34
-256 -14 -29 10 -46 11 -84 1 -26 -7 -49 -10 -52 -8 -2 3 6 21 18 42 19 31 20
39 8 45 -8 5 -23 15 -34 24 -19 14 -19 15 20 32 74 31 95 34 96 16 1 -14 2
-14 6 1 3 14 12 18 28 15 22 -5 23 -4 8 19 -8 12 -19 23 -24 23 -5 0 -9 9 -9
19 0 22 20 39 108 93 76 47 86 75 42 124 -16 19 -30 44 -30 55 0 14 -9 21 -30
26 -16 3 -30 12 -30 20 0 7 -7 16 -15 19 -8 4 -15 13 -15 20 0 8 -7 17 -15 20
-14 6 -19 70 -5 79 4 2 5 34 3 70 -2 39 1 65 7 65 5 0 10 7 10 15 0 8 -7 15
-15 15 -8 0 -21 14 -30 30 -9 17 -20 30 -25 30 -6 0 -10 6 -10 13 0 15 -56 11
-66 -4 -3 -5 -16 -9 -28 -9 -13 0 -44 -16 -69 -35 -25 -19 -51 -35 -56 -35 -6
0 -11 -4 -11 -10 0 -5 -7 -10 -15 -10 -23 0 -18 24 16 92 63 125 223 248 322
248 24 0 48 -5 55 -12 17 -17 15 -72 -5 -116 -9 -20 -17 -48 -18 -62 -1 -14
-6 -34 -10 -45 -6 -14 1 -10 25 13 105 101 241 105 360 11 50 -39 62 -41 35
-6 -7 11 -11 25 -8 33 3 8 1 20 -5 27 -17 21 -35 94 -29 119 14 52 86 53 184
2z m-697 -398 c95 -51 30 -110 -95 -87 -58 11 -61 10 -82 -14 -13 -15 -23 -35
-23 -45 0 -10 10 -31 23 -45 19 -22 36 -28 122 -40 144 -21 203 -40 258 -84
22 -18 22 -26 -3 -51 -21 -21 -21 -21 -48 -1 -36 25 -118 48 -215 60 -104 12
-164 44 -196 102 -19 35 -22 53 -17 82 7 38 46 84 87 103 110 53 125 54 189
20z m844 -5 c83 -38 116 -78 116 -139 0 -90 -70 -146 -203 -163 -119 -15 -174
-29 -212 -54 -35 -25 -35 -25 -55 -5 -25 25 -25 32 -2 53 34 31 110 57 213 73
132 21 157 30 175 66 18 34 11 63 -19 83 -17 11 -33 11 -72 3 -73 -14 -131 2
-138 40 -3 15 -5 27 -4 27 1 0 22 10 47 23 59 29 79 28 154 -7z"/>
</g>
</svg>
